# xmcd
#
# Track frame offsets:
#	150
#	17408
#	36443
#	54096
#	70166
#	88505
#	103717
#	121625
#	137453
#	155602
#	172875
#	188086
#	203237
#	221693
#	239904
#	255852
#	293298
#
# Disc length: 4165 seconds
#
# Revision: 0
# Processed by: cddbd v1.4b42PL0 Copyright (c) Steve Scherf et al.
# Submitted via: EZCDDA 4.3.3.2
#
DISCID=dc104311
DTITLE=Bad Boys Blue - Back
DYEAR=1900
DGENRE=
TTITLE0=You're A Woman (Original Remix 98)
TTITLE1=Love In My Car'98
TTITLE2=Don't Break The Heart
TTITLE3=From Heart To Heart
TTITLE4=B By Your Side
TTITLE5=Lady In Black'98
TTITLE6=Pretty Young Gýrl'98
TTITLE7=From Heaven To Heartaches
TTITLE8=Lovers In The Sand'98
TTITLE9=I Wanna Hear Your Heartbeat'98
TTITLE10=A World Without You (Michelle)'98
TTITLE11=All About You
TTITLE12=Come Back And Stay'98
TTITLE13=Out Of The Blue
TTITLE14=I Believe
TTITLE15=Megamix Vol.1
TTITLE16=Megamix Vol.2
EXTD=
EXTT0=
EXTT1=
EXTT2=
EXTT3=
EXTT4=
EXTT5=
EXTT6=
EXTT7=
EXTT8=
EXTT9=
EXTT10=
EXTT11=
EXTT12=
EXTT13=
EXTT14=
EXTT15=
EXTT16=
PLAYORDER=
